<svg width="2048" height="878" viewBox="0 0 2048 878" fill="none" xmlns="http://www.w3.org/2000/svg">
  <defs>
    <linearGradient id="bg" x1="0" y1="0" x2="2048" y2="878" gradientUnits="userSpaceOnUse">
      <stop stop-color="#EEE7FF"/>
      <stop offset="1" stop-color="#F6F2FF"/>
    </linearGradient>
    <filter id="shadow" x="0" y="0" width="2048" height="878" filterUnits="userSpaceOnUse" color-interpolation-filters="sRGB">
      <feDropShadow dx="0" dy="12" stdDeviation="16" flood-color="#C9BCEB" flood-opacity="0.18"/>
    </filter>
  </defs>

  <rect width="2048" height="878" fill="url(#bg)"/>

  <g>
    <path d="M33 17V27" stroke="#182234" stroke-width="5" stroke-linecap="round"/>
    <rect x="16" y="25" width="34" height="24" rx="10" stroke="#182234" stroke-width="5"/>
    <path d="M16 32H10C8.34315 32 7 33.3431 7 35V39C7 40.6569 8.34315 42 10 42H16" stroke="#182234" stroke-width="5"/>
    <path d="M50 32H56C57.6569 32 59 33.3431 59 35V39C59 40.6569 57.6569 42 56 42H50" stroke="#182234" stroke-width="5"/>
    <circle cx="25" cy="37" r="3.5" fill="#182234"/>
    <circle cx="41" cy="37" r="3.5" fill="#182234"/>
    <path d="M26 56H40" stroke="#182234" stroke-width="5" stroke-linecap="round"/>
    <path d="M22 49V56" stroke="#182234" stroke-width="5" stroke-linecap="round"/>
    <path d="M44 49V56" stroke="#182234" stroke-width="5" stroke-linecap="round"/>
    <path d="M22 56C17.5817 56 14 59.5817 14 64V80H52V64C52 59.5817 48.4183 56 44 56H22Z" stroke="#182234" stroke-width="5"/>
    <path d="M22 80V71C22 68.7909 23.7909 67 26 67H28V74" stroke="#182234" stroke-width="5" stroke-linecap="round" stroke-linejoin="round"/>
    <path d="M44 80V71C44 68.7909 42.2091 67 40 67H38V74" stroke="#182234" stroke-width="5" stroke-linecap="round" stroke-linejoin="round"/>
    <circle cx="41" cy="73" r="5" stroke="#182234" stroke-width="5"/>
  </g>
  <text x="74" y="69" fill="#182234" font-family="Georgia, serif" font-size="66" font-weight="700">ChatClinic</text>
  <text x="1580" y="76" fill="#617387" font-family="Arial, sans-serif" font-size="24">Copyright 2026. BISPL@KAIST AI, All rights reserved.</text>

  <g filter="url(#shadow)">
    <rect x="21" y="110" width="517" height="717" rx="36" fill="white" fill-opacity="0.9"/>
    <rect x="560" y="110" width="936" height="717" rx="36" fill="white" fill-opacity="0.92"/>
    <rect x="1518" y="110" width="488" height="717" rx="36" fill="white" fill-opacity="0.9"/>
  </g>

  <rect x="49" y="139" width="461" height="349" rx="28" fill="white" fill-opacity="0.75" stroke="#D8E2F0"/>
  <line x1="49" y1="212.5" x2="510" y2="212.5" stroke="#E4EAF3"/>
  <text x="74" y="185" fill="#182234" font-family="Arial, sans-serif" font-size="32" font-weight="700">Sources</text>
  <rect x="74" y="239" width="412" height="66" rx="26" fill="white" stroke="#D7E2F0"/>
  <text x="185" y="281" fill="#25344A" font-family="Arial, sans-serif" font-size="24">+ Add clinical source</text>
  <rect x="74" y="347" width="412" height="62" rx="24" fill="white" stroke="#D7E2F0"/>
  <text x="93" y="387" fill="#25344A" font-family="Arial, sans-serif" font-size="22" font-weight="700">test1_chest_xray.dcm</text>
  <text x="336" y="387" fill="#607286" font-family="Arial, sans-serif" font-size="20">medical-image</text>
  <text x="74" y="455" fill="#607286" font-family="Arial, sans-serif" font-size="18">Status</text>
  <text x="336" y="455" fill="#182234" font-family="Arial, sans-serif" font-size="18" font-weight="700">Summary ready</text>

  <rect x="49" y="509" width="461" height="286" rx="28" fill="white" fill-opacity="0.75" stroke="#D8E2F0"/>
  <line x1="49" y1="582.5" x2="510" y2="582.5" stroke="#E4EAF3"/>
  <text x="74" y="555" fill="#182234" font-family="Arial, sans-serif" font-size="32" font-weight="700">Tool Registry</text>
  <rect x="74" y="607" width="412" height="76" rx="26" fill="white" stroke="#D7E2F0"/>
  <text x="94" y="653" fill="#25344A" font-family="Arial, sans-serif" font-size="22" font-weight="700">Available tools</text>
  <circle cx="455" cy="645" r="20" fill="#E9EEF4"/>
  <text x="448" y="653" fill="#31506E" font-family="Arial, sans-serif" font-size="18" font-weight="700">3</text>
  <rect x="74" y="701" width="412" height="90" rx="26" fill="white" stroke="#D7E2F0"/>
  <text x="94" y="737" fill="#25344A" font-family="Arial, sans-serif" font-size="22" font-weight="700">Used tools</text>
  <text x="427" y="737" fill="#25344A" font-family="Arial, sans-serif" font-size="18" font-weight="700">1</text>
  <text x="94" y="773" fill="#6B7E90" font-family="Courier New, monospace" font-size="18">- using tool: `dicom_review_tool`</text>

  <text x="590" y="184" fill="#182234" font-family="Arial, sans-serif" font-size="30" font-weight="700">Chat</text>
  <rect x="1276" y="146" width="190" height="42" rx="21" fill="#EEF2F4"/>
  <text x="1295" y="174" fill="#44627E" font-family="Courier New, monospace" font-size="18">Summary ready</text>
  <text x="590" y="255" fill="#25344A" font-family="Arial, sans-serif" font-size="24">Upload one clinical CSV/TSV file, FHIR JSON/XML/NDJSON, HL7 message files, plain-text clinical</text>
  <text x="590" y="292" fill="#25344A" font-family="Arial, sans-serif" font-size="24">notes, or DICOM files. ChatClinic will generate a deterministic first-pass summary and open the</text>
  <text x="590" y="329" fill="#25344A" font-family="Arial, sans-serif" font-size="24">matching Studio cards.</text>
  <text x="590" y="410" fill="#25344A" font-family="Arial, sans-serif" font-size="24">This imaging source was recognized as a DICOM-style file. Detected modality is DX, study</text>
  <text x="590" y="447" fill="#25344A" font-family="Arial, sans-serif" font-size="24">description is No Finding, and matrix size is 1024 x 1024. This first-pass summary should be</text>
  <text x="590" y="484" fill="#25344A" font-family="Arial, sans-serif" font-size="24">followed by series-level QC, metadata validation, and visual review.</text>
  <rect x="590" y="682" width="870" height="64" rx="24" fill="white" stroke="#CFE0EF" stroke-width="2"/>
  <text x="611" y="723" fill="#8B8F97" font-family="Arial, sans-serif" font-size="21">Ask a follow-up question about the current scaffold...</text>
  <ellipse cx="632" cy="778" rx="37" ry="19" fill="#FF7E30"/>
  <text x="618" y="786" fill="white" font-family="Arial, sans-serif" font-size="28">→</text>

  <text x="1548" y="184" fill="#182234" font-family="Arial, sans-serif" font-size="30" font-weight="700">Studio</text>
  <rect x="1548" y="200" width="215" height="195" rx="28" fill="#EEF4FF" stroke="#D9E6F2"/>
  <text x="1573" y="238" fill="#111827" font-family="Arial, sans-serif" font-size="24" font-weight="700">DICOM Review</text>
  <text x="1573" y="282" fill="#607286" font-family="Arial, sans-serif" font-size="20">Metadata and</text>
  <text x="1573" y="322" fill="#607286" font-family="Arial, sans-serif" font-size="20">image preview</text>
  <rect x="1548" y="713" width="395" height="84" rx="24" fill="white" fill-opacity="0.72" stroke="#D8E2F0"/>
  <text x="1572" y="756" fill="#607286" font-family="Arial, sans-serif" font-size="18">Select a Studio card to open its detailed result</text>
  <text x="1572" y="780" fill="#607286" font-family="Arial, sans-serif" font-size="18">below.</text>
</svg>
